<?xml version="1.0" encoding="UTF-8"?>
<!DOCTYPE svg PUBLIC "-//W3C//DTD SVG 1.1//EN" "http://www.w3.org/Graphics/SVG/1.1/DTD/svg11.dtd">
<!-- Creator: CorelDRAW -->
<svg xmlns="http://www.w3.org/2000/svg" xml:space="preserve" width="6.82666in" height="6.82666in" style="shape-rendering:geometricPrecision; text-rendering:geometricPrecision; image-rendering:optimizeQuality; fill-rule:evenodd; clip-rule:evenodd"
viewBox="0 0 6.82666 6.82666"
 xmlns:xlink="http://www.w3.org/1999/xlink">
 <defs>
  <style type="text/css">
   <![CDATA[
    .fil0 {fill:#AB47BC}
    .fil1 {fill:#FFFFFE}
   ]]>
  </style>
 </defs>
 <g id="Layer_x0020_1">
  <metadata id="CorelCorpID_0Corel-Layer"/>
  <rect class="fil0" width="6.82666" height="6.82666" rx="0.853335" ry="0.853335"/>
  <path class="fil1" d="M1.90919 0.853327l3.00828 0c0.129839,0 0.247795,0.0530472 0.333244,0.138496 0.0854528,0.0854567 0.1385,0.203425 0.1385,0.333252l0 4.17651c0,0.129823 -0.0530512,0.247787 -0.138504,0.333244 -0.0854528,0.0854528 -0.203421,0.138504 -0.33324,0.138504l-3.00828 0c-0.129827,0 -0.247795,-0.0530472 -0.333248,-0.1385 -0.0854488,-0.0854488 -0.138496,-0.203413 -0.138496,-0.333248l0 -4.17651c0,-0.129839 0.0530433,-0.247807 0.138492,-0.333256 0.0854488,-0.0854488 0.203413,-0.138492 0.333252,-0.138492zm-0.00590551 1.92762l0.402244 0c0.0450551,0 0.0859724,0.018374 0.115571,0.0479764 0.0296024,0.0295984 0.0479764,0.0705039 0.0479764,0.115571l0 0.402244c0,0.0450551 -0.018374,0.0859685 -0.0479764,0.115571 -0.0295984,0.0296024 -0.0705157,0.0479764 -0.115571,0.0479764l-0.402244 0c-0.0450669,0 -0.0859685,-0.018374 -0.115571,-0.0479764 -0.0296024,-0.0296024 -0.0479764,-0.0705157 -0.0479764,-0.115571l0 -0.402244c0,-0.0450669 0.018374,-0.0859724 0.0479764,-0.115571 0.0296024,-0.0296024 0.0705039,-0.0479764 0.115571,-0.0479764zm0 1.97598l0.402244 0c0.0450551,0 0.0859724,0.018374 0.115571,0.0479764 0.0296024,0.0295984 0.0479764,0.0705039 0.0479764,0.115571l0 0.402244c0,0.0450551 -0.018374,0.0859685 -0.0479764,0.115571 -0.0295984,0.0296024 -0.0705157,0.0479764 -0.115571,0.0479764l-0.402244 0c-0.0450669,0 -0.0859685,-0.018374 -0.115571,-0.0479764 -0.0296024,-0.0296024 -0.0479764,-0.0705157 -0.0479764,-0.115571l0 -0.402244c0,-0.0450669 0.018374,-0.0859724 0.0479764,-0.115571 0.0296024,-0.0296024 0.0705039,-0.0479764 0.115571,-0.0479764zm2.61785 0l0.402244 0c0.0450551,0 0.0859685,0.018374 0.115571,0.0479764 0.0296024,0.0295984 0.0479764,0.0705039 0.0479764,0.115571l0 0.402244c0,0.0450551 -0.018374,0.0859685 -0.0479764,0.115571 -0.0296024,0.0296024 -0.0705157,0.0479764 -0.115571,0.0479764l-0.402244 0c-0.0450669,0 -0.0859724,-0.018374 -0.115571,-0.0479764 -0.0296024,-0.0296024 -0.0479764,-0.0705157 -0.0479764,-0.115571l0 -0.402244c0,-0.0450669 0.018374,-0.0859724 0.0479764,-0.115571 0.0295984,-0.0296024 0.0705039,-0.0479764 0.115571,-0.0479764zm-0.872614 0l0.402236 0c0.045063,0 0.0859764,0.018374 0.115575,0.0479764 0.0296024,0.0295984 0.0479803,0.0705039 0.0479803,0.115571l0 0.402244c0,0.0450551 -0.018378,0.0859685 -0.0479803,0.115571 -0.0295984,0.0296024 -0.0705118,0.0479764 -0.115575,0.0479764l-0.402236 0c-0.0450709,0 -0.0859724,-0.018374 -0.115575,-0.0479764 -0.0295984,-0.0296024 -0.0479724,-0.0705157 -0.0479724,-0.115571l0 -0.402244c0,-0.0450669 0.018374,-0.0859724 0.0479724,-0.115571 0.0296024,-0.0296024 0.0705039,-0.0479764 0.115575,-0.0479764zm-0.872614 0l0.402236 0c0.0450591,0 0.0859724,0.018374 0.115575,0.0479764 0.0295984,0.0295984 0.0479724,0.0705039 0.0479724,0.115571l0 0.402244c0,0.0450551 -0.018374,0.0859685 -0.0479724,0.115571 -0.0296024,0.0296024 -0.0705157,0.0479764 -0.115575,0.0479764l-0.402236 0c-0.0450709,0 -0.0859764,-0.018374 -0.115575,-0.0479764 -0.0296024,-0.0296024 -0.0479803,-0.0705157 -0.0479803,-0.115571l0 -0.402244c0,-0.0450669 0.018378,-0.0859724 0.0479803,-0.115571 0.0295984,-0.0296024 0.0705039,-0.0479764 0.115575,-0.0479764zm-0.872622 -0.987988l0.402244 0c0.0450551,0 0.0859724,0.018374 0.115571,0.0479764 0.0296024,0.0295984 0.0479764,0.0705039 0.0479764,0.115571l0 0.402244c0,0.0450551 -0.018374,0.0859685 -0.0479764,0.115571 -0.0295984,0.0296024 -0.0705157,0.0479764 -0.115571,0.0479764l-0.402244 0c-0.0450669,0 -0.0859685,-0.018374 -0.115571,-0.0479764 -0.0296024,-0.0296024 -0.0479764,-0.0705157 -0.0479764,-0.115571l0 -0.402244c0,-0.0450669 0.018374,-0.0859724 0.0479764,-0.115571 0.0296024,-0.0296024 0.0705039,-0.0479764 0.115571,-0.0479764zm2.61785 0l0.402244 0c0.0450551,0 0.0859685,0.018374 0.115571,0.0479764 0.0296024,0.0295984 0.0479764,0.0705039 0.0479764,0.115571l0 0.402244c0,0.0450551 -0.018374,0.0859685 -0.0479764,0.115571 -0.0296024,0.0296024 -0.0705157,0.0479764 -0.115571,0.0479764l-0.402244 0c-0.0450669,0 -0.0859724,-0.018374 -0.115571,-0.0479764 -0.0296024,-0.0296024 -0.0479764,-0.0705157 -0.0479764,-0.115571l0 -0.402244c0,-0.0450669 0.018374,-0.0859724 0.0479764,-0.115571 0.0295984,-0.0296024 0.0705039,-0.0479764 0.115571,-0.0479764zm-0.872614 0l0.402236 0c0.045063,0 0.0859764,0.018374 0.115575,0.0479764 0.0296024,0.0295984 0.0479803,0.0705039 0.0479803,0.115571l0 0.402244c0,0.0450551 -0.018378,0.0859685 -0.0479803,0.115571 -0.0295984,0.0296024 -0.0705118,0.0479764 -0.115575,0.0479764l-0.402236 0c-0.0450709,0 -0.0859724,-0.018374 -0.115575,-0.0479764 -0.0295984,-0.0296024 -0.0479724,-0.0705157 -0.0479724,-0.115571l0 -0.402244c0,-0.0450669 0.018374,-0.0859724 0.0479724,-0.115571 0.0296024,-0.0296024 0.0705039,-0.0479764 0.115575,-0.0479764zm-0.872614 0l0.402236 0c0.0450591,0 0.0859724,0.018374 0.115575,0.0479764 0.0295984,0.0295984 0.0479724,0.0705039 0.0479724,0.115571l0 0.402244c0,0.0450551 -0.018374,0.0859685 -0.0479724,0.115571 -0.0296024,0.0296024 -0.0705157,0.0479764 -0.115575,0.0479764l-0.402236 0c-0.0450709,0 -0.0859764,-0.018374 -0.115575,-0.0479764 -0.0296024,-0.0296024 -0.0479803,-0.0705157 -0.0479803,-0.115571l0 -0.402244c0,-0.0450669 0.018378,-0.0859724 0.0479803,-0.115571 0.0295984,-0.0296024 0.0705039,-0.0479764 0.115575,-0.0479764zm1.74523 -0.987988l0.402244 0c0.0450551,0 0.0859685,0.018374 0.115571,0.0479764 0.0296024,0.0295984 0.0479764,0.0705039 0.0479764,0.115571l0 0.402244c0,0.0450551 -0.018374,0.0859685 -0.0479764,0.115571 -0.0296024,0.0296024 -0.0705157,0.0479764 -0.115571,0.0479764l-0.402244 0c-0.0450669,0 -0.0859724,-0.018374 -0.115571,-0.0479764 -0.0296024,-0.0296024 -0.0479764,-0.0705157 -0.0479764,-0.115571l0 -0.402244c0,-0.0450669 0.018374,-0.0859724 0.0479764,-0.115571 0.0295984,-0.0296024 0.0705039,-0.0479764 0.115571,-0.0479764zm-0.872614 0l0.402236 0c0.045063,0 0.0859764,0.018374 0.115575,0.0479764 0.0296024,0.0295984 0.0479803,0.0705039 0.0479803,0.115571l0 0.402244c0,0.0450551 -0.018378,0.0859685 -0.0479803,0.115571 -0.0295984,0.0296024 -0.0705118,0.0479764 -0.115575,0.0479764l-0.402236 0c-0.0450709,0 -0.0859724,-0.018374 -0.115575,-0.0479764 -0.0295984,-0.0296024 -0.0479724,-0.0705157 -0.0479724,-0.115571l0 -0.402244c0,-0.0450669 0.018374,-0.0859724 0.0479724,-0.115571 0.0296024,-0.0296024 0.0705039,-0.0479764 0.115575,-0.0479764zm-0.872614 0l0.402236 0c0.0450591,0 0.0859724,0.018374 0.115575,0.0479764 0.0295984,0.0295984 0.0479724,0.0705039 0.0479724,0.115571l0 0.402244c0,0.0450551 -0.018374,0.0859685 -0.0479724,0.115571 -0.0296024,0.0296024 -0.0705157,0.0479764 -0.115575,0.0479764l-0.402236 0c-0.0450709,0 -0.0859764,-0.018374 -0.115575,-0.0479764 -0.0296024,-0.0296024 -0.0479803,-0.0705157 -0.0479803,-0.115571l0 -0.402244c0,-0.0450669 0.018378,-0.0859724 0.0479803,-0.115571 0.0295984,-0.0296024 0.0705039,-0.0479764 0.115575,-0.0479764zm-0.789827 -1.62716l2.84001 0c0.128335,0 0.233331,0.096252 0.233331,0.213886l0 0.959449 -3.30667 0 0 -0.959449c0,-0.117638 0.104996,-0.213886 0.233331,-0.213886z"/>
 </g>
</svg>
